<?xml version="1.0" encoding="utf-8"?>
<!-- Generator: Adobe Illustrator 28.1.0, SVG Export Plug-In . SVG Version: 6.00 Build 0)  -->
<svg version="1.1" id="Layer_1" xmlns:xodm="http://www.corel.com/coreldraw/odm/2003"
	 xmlns="http://www.w3.org/2000/svg" xmlns:xlink="http://www.w3.org/1999/xlink" x="0px" y="0px" viewBox="0 0 151.3 182"
	 style="enable-background:new 0 0 151.3 182;" xml:space="preserve">
<style type="text/css">
	.st0{fill:#FFFFFF;}
</style>
<g id="Layer_x0020_1">
	<g id="_2961754795728">
		<path class="st0" d="M90.5,155.2c0.1-1.4-0.1-1,2.6-2.5c2.1-1.1,8.2-5.2,10-5.3c0.1,1.7,1.2,2.8,1.4,4.8
			C102.1,152.7,92,156,90.5,155.2L90.5,155.2z M87.7,150.1l-1.8-2c1.2-2.2,2.4-4.1,3.5-6.2c0.8-1.5,3-4.7,3.4-6.1
			c2.1,0.6,6.1,5.1,7.5,7.2c-1.1,0.3-2.2,1.2-3.1,1.7L87.7,150.1L87.7,150.1z M81.6,145.7c-3.1-1.5-2.7,1.1-2.7-6.1c0-3,0-5.9,0-8.9
			c4.9,0,6.9,1.7,9.9,2.4c-1.2,2.2-2.2,4.1-3.6,6.3C84,141.5,82.7,143.6,81.6,145.7z M72.1,95.6h-1.4v-3.1c1.9,0,2.6,0.7,6.5,0.7
			c2.3,0,3.2-0.6,5.1-0.7v3.1l-5.8-0.3C75.1,95.3,74,95.6,72.1,95.6L72.1,95.6z M58.5,40.8v-4.4h2.7c-0.1,1-0.4,1.6-0.8,2.6
			C59.8,40.3,59.9,40.5,58.5,40.8z M35.1,111l3.2,3.2c0.1,0,0.2-0.1,0.2-0.1l0.8-0.4c2.3-1.5,3-2.8,8.1-5.6
			c2.8-1.6,7.4-3.9,10.7-4.7l3.3,12c0.5,2,0.7,4.7,3.4,4.3c2.7-0.4,2.1-3.1,1.5-5.1c-0.5-1.8-3.4-11.9-3.3-12.2
			c0.2-0.8,0-0.5,2.6-0.9c1.1-0.2,2.2-0.4,3.5-0.6c5.7-0.8,12-0.6,17.7,0.4c4.3,0.8,3.7-1.2-0.1,13c-0.5,2-1.4,4.7,1.2,5.3
			c2.8,0.8,3.1-2.2,3.6-4c0.5-2,1.2-4.1,1.7-6.1c0.4-1.7,1.1-4.8,1.7-6.1c2.1,0.5,4.7,1.7,6.6,2.6c3.8,1.9,13.8,7.8,16.2,11.4
			l-9.6,9.8c-3.9,3.7-0.2,7.1,3.1,3.8l10-9.8c3.9,2.6,12.2,18.4,12.3,23.2c-1,0.5-4.7,1.3-5.9,1.6l-15,4c-1.3,0.3-2.1,0.5-3.3,0.8
			c-0.2-2.1-1.6-5-2.5-6.7c-1.2-2.4-2.1-3.9-3.7-5.8c-1.4-1.8-2.7-3.3-4.5-4.7c-10.6-8.3-21.7-10.2-34.4-5.7l-1.5,0.8l3.4,3.7
			c2.7-0.7,4.5-1.7,8.1-1.7v9.8c1.3,0.7,18.8,18.2,19.5,19.5c2-0.1,13-3.4,15.9-4.1l27.6-7.4c1.3-0.5,2-1.3,1.8-2.9l-2.3-7.9
			c-0.8-2.5-1.9-4.9-3-7.2s-2.4-4.1-3.7-6.2c-1.1-1.9-2.9-4.1-4.4-5.9c-8.7-10.7-20.9-17.8-34.3-21.2c-1.5-0.4-2.8-0.6-4.2-0.9
			c0-10.4,0.4-4.3,4.1-9.9h1.5c-0.7-1.4-2.9-3.5-4.2-4.2c-5,7.4-18,9-24.2-0.8c-2-3.2-3.7-6.6-4.6-10.4c-0.8-3.6-0.1-3.9-0.1-7.3
			c-0.5-0.7-1.1-1.1-1.7-1.8c-0.9-0.9-0.9-1.1-2-1.6c-3.5,6.1-0.4,15.5,2.7,21.4c-3.7,0-5.1-0.3-7.4-1.8c-6.2-4.3-5.5-14-2.2-20.6
			c1.9-3.7,3.9-6.7,6.9-9.4c0.7-0.6,0.5-0.5,1.2-1.2c2.4-2.8,7.9-6,11.9-7.1c-1.3-1.6-3.4-3.5-5-5.1c-1.5-1.5-3.9-3.4-4.9-5.1
			c-4.4,0-2.9-0.5-5.5-2.6l-4.5-4c-1.7-1.3-2.7-2.7-4.3-3.9c-1.3-1-3.2-3.5-4.8-3.7c-2.3-0.3-3.6,2.5-1.7,4.5l8.7,8
			c1.6,1.3,3.2,2.5,4.3,4.2c-4.4,0-8.9,0-13.3,0c-3.5,0-10.6-1.4-9.4,2.9c0.7,2.8,6.7,1.9,11.5,1.9c4.4,0,8.9,0,13.3,0
			c0,10.1,0.9,4.4-5.1,12.3c-0.9,1.2-1.7,2.3-2.4,3.7c-3.2,5.9-5.4,11.7-4.1,19c1.5,7.7,8,13.5,16.3,13.3c3-0.1,2.9-1.2,4.7,0.7
			c3.8,4,3.1,0.7,3.1,8.8c-2.8,0.2-6.4,1.5-9,2.2c-7.2,2-14.6,6.3-20.4,10.9c-0.2,0.1-0.7,0.6-0.8,0.6L35.1,111L35.1,111z"/>
		<path class="st0" d="M78.9,40.1c4.6,0.4,11,3.5,14.8,6.3l2.7,2.4c0.1,0,0.1,0.1,0.2,0.2c4,3.9,7.3,8.6,9.1,14
			c2.2,6.7,1,14.5-5.5,17.7c-2.2,1.1-2.5,0.9-5.6,0.9c3.1-5.8,4.1-9,4.1-15.3c0-5.2-2.6-11.2-7.9-11.5C88.2,54.6,80,58,79,50.6
			C78.6,48,78.9,43,78.9,40.1L78.9,40.1z M91.8,36.4h2.7v4.4c-1.3-0.3-1.3-0.4-1.8-1.6C92.2,38.2,92,37.6,91.8,36.4z M66.6,37
			c0.2-1.8,2.3-6.2,3-7.5c3.4-5.6,10.4-5.4,13.6-0.2c0.8,1.4,3,6,3.2,7.7C80.5,34.2,72.6,34.2,66.6,37L66.6,37z M59,31.3
			c1,1.7,3.4,3.6,4.9,5.1c1.6,1.6,3.7,3.5,5,5.1c1.1-0.4,3.8-1.2,5.2-1.4c0,6.5,1.6,14.5-4.8,15.3c-3.7,0.4-5.7-1.2-8.8-0.3
			c-2,0.7-4.5,2.7-4.8,5.1c1.2,0.5,1.2,0.7,2,1.6c0.6,0.7,1.2,1.1,1.7,1.8c0.3-0.2,0.1,0.1,0.5-0.7c0.7-1.5,0.1-0.9,1.6-3.2
			c7.5,0,6.5,2.9,15-2.7c8.5,5.7,7.5,2.7,15,2.7c2.3,3.4,2.9,7.1,1.7,11.9c-0.7,2.6-2,5.6-3.3,7.9c-0.5,0.9-1.2,1.6-1.5,2.5
			c1.4,0.7,3.5,2.9,4.2,4.2c1.9,1.2,7-0.1,8.4-0.6c6.6-2.4,11.6-10.3,10.4-19c-0.7-5.6-2.8-10.3-5.5-14.3c-3.4-5.1-6.2-6.4-6.4-8.6
			c-0.1-1.6,0-3.5,0-5.1h19.4c2.6,0,4.5,0.5,5.3-1.6c1.7-4.7-6.2-2.8-9.6-3.2c-3.8-0.4-8.6-0.3-13-0.3c0.6-0.9,1.3-1.5,2.1-2.3
			l9.2-8.5c0.9-0.7,1.8-1.1,2.3-2.1c1.2-2.3-1.1-4.8-3.8-3.1L97.7,30.3c-1.5,1.5-4.1,0.9-8.3,0.9c-0.2-2.9-3.8-8.2-7.9-9.8
			c-5-2-9.9-0.9-13.6,2.2c-1.3,1.1-4.2,5.5-4.4,7.6L59,31.3L59,31.3z"/>
		<path class="st0" d="M66.6,159.7c0-4.7,3.8-9.9,8.9-9.9h2c8.9,0,11.7,13.2,4.9,17.5C74.4,172.4,66.6,166.4,66.6,159.7L66.6,159.7z
			 M49.9,147.4c1.6,0.1,5.2,2.6,6.7,3.5c3,1.8,5.7,2.5,5.9,4.4c-1.6,0.8-11.6-2.5-14-3.1C48.7,150.5,49.6,149,49.9,147.4L49.9,147.4
			z M60.2,135.8l6.8,12.3c-0.7,1.1-1.3,1.1-1.7,2.4c-1.2-1.3-11.6-7.2-12.6-7.5C53.9,141.2,58.1,136.4,60.2,135.8L60.2,135.8z
			 M93.6,160c-0.7-1.3-18.2-18.8-19.5-19.5v4.5c-1.2,0-1.9,0.3-2.7,0.7l-7.2-12.6c0.9-0.2,1.1-0.4,1.8-0.7l-3.4-3.7
			c-2.5,0.5-7.5,4.1-9.4,6l-1.3,1.4c-3,3.3-7.8,9.8-8.2,14.7c-8.3-1.9-16.3-4.5-24.5-6.5c1.4-2.8,1.7-6.1,5.1-12.6
			c1.2-2.4,5.5-9.2,7.5-10.6c1.5,1,8,7.8,10.1,10c0.8,0.8,1.9,1.8,3.4,0.9c1-0.6,1.6-2,0.8-3.4c-0.2-0.3-1.2-1.2-1.5-1.6l-9.5-9.6
			c0.4-0.6,0.8-1.1,1.4-1.6c1.1-1,1-0.5,1.6-1.6l-3.2-3.2c-6.4,3.2-15.5,17.7-18.5,25.9c-4.6,12.5-4,11,9.7,14.4c4,1,8,2.2,11.8,3.2
			l17.8,4.7c1.7,0.5,4.3,1.3,6,1.5c0,10.7,14.9,18.7,24.6,9.7c2.3-2.1,4.7-5.8,4.7-9.7L93.6,160L93.6,160z"/>
	</g>
</g>
</svg>
